<?xml version="1.0" encoding="UTF-8"?>
<!DOCTYPE svg PUBLIC "-//W3C//DTD SVG 1.1//EN" "http://www.w3.org/Graphics/SVG/1.1/DTD/svg11.dtd">
<!-- Creator: CorelDRAW -->
<svg xmlns="http://www.w3.org/2000/svg" xml:space="preserve" width="53px" height="53px" version="1.1" style="shape-rendering:geometricPrecision; text-rendering:geometricPrecision; image-rendering:optimizeQuality; fill-rule:evenodd; clip-rule:evenodd"
viewBox="0 0 53 53"
 xmlns:xlink="http://www.w3.org/1999/xlink"
 xmlns:xodm="http://www.corel.com/coreldraw/odm/2003">
 <defs>
  <style type="text/css">
   <![CDATA[
    .fil0 {fill:none}
    .fil3 {fill:black}
    .fil1 {fill:#D90368}
    .fil2 {fill:white;fill-rule:nonzero}
   ]]>
  </style>
 </defs>
 <g id="Camada_x0020_1">
  <metadata id="CorelCorpID_0Corel-Layer"/>
  <rect class="fil0" x="-0.5" y="0.5" width="53" height="53"/>
  <circle class="fil1" cx="26" cy="27" r="25"/>
  <g id="_2346986679248">
   <polygon class="fil2" points="12.51,18.01 12.51,25.2 18.63,18.01 24.48,18.01 17.75,25.77 24.84,35.99 18.73,35.99 14.36,29.31 14.31,29.31 12.51,31.32 12.51,35.99 7.54,35.99 7.54,18.01 "/>
   <rect class="fil3" x="25.66" y="16.32" width="18.81" height="21.36" rx="2" ry="1.95"/>
   <polygon class="fil2" points="32.49,27 32.49,35.99 27.36,35.99 27.36,18.01 32.49,18.01 37.63,27 37.63,18.01 42.76,18.01 42.76,35.99 37.63,35.99 "/>
  </g>
 </g>
</svg>
